<?xml version="1.0" encoding="UTF-8"?>
<svg width="20px" height="13px" viewBox="0 0 20 13" version="1.1" xmlns="http://www.w3.org/2000/svg" xmlns:xlink="http://www.w3.org/1999/xlink">
    <title>Group 5</title>
    <g id="Page-1" stroke="none" stroke-width="1" fill="none" fill-rule="evenodd">
        <g id="Artboard-Copy" transform="translate(-54.000000, -346.000000)" fill="#FFFFFF" fill-rule="nonzero">
            <g id="Group-6-Copy" transform="translate(30.000000, 33.000000)">
                <g id="Group-5" transform="translate(24.000000, 313.000000)">
                    <path d="M13.7875339,9.67958359 L13.7875339,0.790568533 C13.7875339,0.281141827 13.4669506,0 12.885849,0 L10.9018482,0 C10.3206922,0 10,0.281141827 10,0.790568533 L10,5.01202926 C10,5.13093359 11.3067297,5.68293156 11.3408737,5.79969304 C12.336441,9.20968055 11.5571735,11.9387182 10.613394,12.0663368 C12.1565179,12.1332413 12.3263121,12.7836675 11.1769062,12.3392405 C11.3527451,10.519771 12.0388381,10.5233424 14.0112942,12.2722884 C14.0281756,12.2873836 14.41574,13 14.4398641,13 L19.0983151,13 C19.6794711,13 20,12.7190486 20,12.2095267 L20,10.470295 C20,9.96086828 19.6794711,9.67972645 19.0983151,9.67972645 L13.7875339,9.67958359 Z" id="Path"></path>
                    <path d="M4.88260539,0 L0,13 L3.79347122,13 L4.61974965,10.7513333 L8.7511418,10.7513333 L9.55874323,13 L13.3333333,13 L8.46945597,0 L4.88260539,0 Z M5.48353516,7.87047619 L6.66656461,4.26909524 L7.96237045,7.87047619 L5.48353516,7.87047619 Z" id="Shape"></path>
                </g>
            </g>
        </g>
    </g>
</svg>