<?xml version="1.0" encoding="UTF-8"?>
<svg width="24px" height="24px" viewBox="0 0 24 24" version="1.1" xmlns="http://www.w3.org/2000/svg" xmlns:xlink="http://www.w3.org/1999/xlink">
    <title>Group 6</title>
    <g id="Page-1" stroke="none" stroke-width="1" fill="none" fill-rule="evenodd">
        <g id="Artboard-Copy-11" transform="translate(-1142.000000, -68.000000)">
            <g id="Group-6" transform="translate(1142.000000, 68.000000)">
                <circle id="Oval" fill="#D8D8D8" cx="12" cy="12" r="12"></circle>
                <g id="Group-7" transform="translate(9.000000, 7.000000)" fill="#000000">
                    <path d="M3.38809904,-0.311412117 C4.06264183,-0.290447284 4.60457107,0.251481957 4.6255359,0.92602475 L4.77473719,5.72657093 C4.79409566,6.34942917 4.30486244,6.87004869 3.6820042,6.88940716 C3.65864209,6.89013326 3.63526307,6.89013326 3.61190096,6.88940716 C2.93735817,6.86844233 2.39542893,6.32651309 2.3744641,5.65197029 L2.22526281,0.851424108 C2.20590434,0.228565868 2.69513756,-0.292053643 3.3179958,-0.311412117 C3.34135791,-0.312138213 3.36473693,-0.312138213 3.38809904,-0.311412117 Z" id="Rectangle" transform="translate(3.500000, 3.288998) rotate(-45.000000) translate(-3.500000, -3.288998) "></path>
                    <path d="M3.61190096,3.11059284 C4.2347592,3.09123437 4.75537871,3.58046759 4.77473719,4.20332583 C4.77546328,4.22668793 4.77546328,4.25006696 4.77473719,4.27342907 L4.6255359,9.07397525 C4.60457107,9.74851804 4.06264183,10.2904473 3.38809904,10.3114121 C2.7652408,10.3307706 2.24462129,9.84153737 2.22526281,9.21867913 C2.22453672,9.19531702 2.22453672,9.171938 2.22526281,9.14857589 L2.3744641,4.34802971 C2.39542893,3.67348691 2.93735817,3.13155767 3.61190096,3.11059284 Z" id="Rectangle-Copy-5" transform="translate(3.500000, 6.711002) rotate(-135.000000) translate(-3.500000, -6.711002) "></path>
                </g>
            </g>
        </g>
    </g>
</svg>