<?xml version="1.0" encoding="UTF-8"?>
<svg width="20px" height="15px" viewBox="0 0 20 15" version="1.1" xmlns="http://www.w3.org/2000/svg" xmlns:xlink="http://www.w3.org/1999/xlink">
    <title>Group Copy</title>
    <g id="Page-1" stroke="none" stroke-width="1" fill="none" fill-rule="evenodd">
        <g id="Artboard-Copy" transform="translate(-54.000000, -185.000000)" fill="#FFFFFF" fill-rule="nonzero">
            <g id="Group-6-Copy" transform="translate(30.000000, 33.000000)">
                <g id="Group-Copy" transform="translate(24.000000, 152.000000)">
                    <path d="M0,2.5 C0,1.11928813 1.11928813,0 2.5,0 L7.5,0 L10,2.5 L15,2.5 C16.3807119,2.5 17.5,3.61928813 17.5,5 L17.5,6.25 L7.5,6.25 C5.42893219,6.25 3.75,7.92893219 3.75,10 L3.75,11.875 C3.74999998,12.9105339 2.9105339,13.75 1.875,13.75 C0.839466105,13.75 0,12.9105339 0,11.875 L0,2.5 Z" id="Path"></path>
                    <path d="M5,10 C5,8.61928813 6.11928813,7.5 7.5,7.5 L17.5,7.5 C18.8807119,7.5 20,8.61928813 20,10 L20,12.5 C20,13.8807119 18.8807119,15 17.5,15 L0,15 L2.5,15 C3.88071187,15 5,13.8807119 5,12.5 L5,10 Z" id="Path"></path>
                </g>
            </g>
        </g>
    </g>
</svg>