<?xml version="1.0" encoding="UTF-8"?><svg version="1.1" width="54px" height="68px" viewBox="0 0 54.0 68.0" xmlns="http://www.w3.org/2000/svg" xmlns:xlink="http://www.w3.org/1999/xlink"><defs><clipPath id="i0"><path d="M1403,0 L1403,909 L0,909 L0,0 L1403,0 Z"></path></clipPath></defs><g transform="translate(-675.0 -409.0)"><g clip-path="url(#i0)"><g transform="translate(678.0 412.0)"><path d="M48,38.1538462 L48,29.8076923 C48,23.8812521 43.1646753,19.0769231 37.2,19.0769231 L32.4,19.0769231 C30.4117749,19.0769231 28.8,17.4754801 28.8,15.5 L28.8,10.7307692 C28.8,4.80432903 23.9646753,0 18,0 L12,0 M19.2,0 L3.6,0 C1.6128,0 0,1.60246154 0,3.57692308 L0,58.4230769 C0,60.3975385 1.6128,62 3.6,62 L44.4,62 C46.3872,62 48,60.3975385 48,58.4230769 L48,28.6153846 C48,12.8115441 35.1058008,0 19.2,0 L19.2,0 Z" stroke="#FFFFFF" stroke-width="4.8" fill="none" stroke-linecap="round" stroke-linejoin="round"></path></g></g></g></svg>