<?xml version="1.0" encoding="UTF-8"?>
<svg width="330px" height="349px" viewBox="0 0 330 349" version="1.1" xmlns="http://www.w3.org/2000/svg" xmlns:xlink="http://www.w3.org/1999/xlink">
    <title>Logo Copy 2</title>
    <g id="Page-1" stroke="none" stroke-width="1" fill="none" fill-rule="evenodd">
        <g id="Logo-Copy-2" fill="#FFFFFF">
            <path d="M168.596639,0 L211.554622,65.9621993 L125.638655,65.9621993 L168.596639,0 Z M239,65.9621993 L239,289 C239,322.137085 212.137085,349 179,349 L157,349 C123.862915,349 97,322.137085 97,289 L97,65.9621993 L239,65.9621993 Z M168.94958,158.309278 L165.857143,158.309278 C161.438865,158.309278 157.857143,161.891 157.857143,166.309278 L157.857143,166.309278 L157.857143,188.687285 C157.857143,193.105563 161.438865,196.687285 165.857143,196.687285 L165.857143,196.687285 L168.94958,196.687285 C173.367858,196.687285 176.94958,193.105563 176.94958,188.687285 L176.94958,188.687285 L176.94958,166.309278 C176.94958,161.891 173.367858,158.309278 168.94958,158.309278 L168.94958,158.309278 Z M168.94958,87.5498282 L165.857143,87.5498282 C161.438865,87.5498282 157.857143,91.1315502 157.857143,95.5498282 L157.857143,95.5498282 L157.857143,117.927835 C157.857143,122.346113 161.438865,125.927835 165.857143,125.927835 L165.857143,125.927835 L168.94958,125.927835 C173.367858,125.927835 176.94958,122.346113 176.94958,117.927835 L176.94958,117.927835 L176.94958,95.5498282 C176.94958,91.1315502 173.367858,87.5498282 168.94958,87.5498282 L168.94958,87.5498282 Z M97,47.9725086 L114.89916,47.9725086 L114.89916,65.9621993 L97,65.9621993 L97,47.9725086 Z M221.10084,47.9725086 L239,47.9725086 L239,65.9621993 L221.10084,65.9621993 L221.10084,47.9725086 Z" id="Combined-Shape"></path>
            <path d="M42.2545455,77 L67.7533597,115.511628 L73.0434783,115.511628 L73.0434783,104.680233 L84,104.680233 L84,284 L43,284 C19.2517558,284 2.90832113e-15,264.748244 0,241 L0,104.680233 L10.9565217,104.680233 L10.9565217,115.511628 L16.7557312,115.511628 L42.2545455,77 Z M43.6956522,128.75 L41.5217391,128.75 C38.7603154,128.75 36.5217391,130.988576 36.5217391,133.75 L36.5217391,133.75 L36.5217391,147.819767 C36.5217391,150.581191 38.7603154,152.819767 41.5217391,152.819767 L41.5217391,152.819767 L43.6956522,152.819767 C46.4570759,152.819767 48.6956522,150.581191 48.6956522,147.819767 L48.6956522,147.819767 L48.6956522,133.75 C48.6956522,130.988576 46.4570759,128.75 43.6956522,128.75 L43.6956522,128.75 Z" id="Combined-Shape"></path>
            <path d="M288.254545,77 L313.75336,115.511628 L319.043478,115.511628 L319.043478,104.680233 L330,104.680233 L330,284 L289,284 C265.251756,284 246,264.748244 246,241 L246,104.680233 L256.956522,104.680233 L256.956522,115.511628 L262.755731,115.511628 L288.254545,77 Z M289.695652,128.75 L287.521739,128.75 C284.760315,128.75 282.521739,130.988576 282.521739,133.75 L282.521739,133.75 L282.521739,147.819767 C282.521739,150.581191 284.760315,152.819767 287.521739,152.819767 L287.521739,152.819767 L289.695652,152.819767 C292.457076,152.819767 294.695652,150.581191 294.695652,147.819767 L294.695652,147.819767 L294.695652,133.75 C294.695652,130.988576 292.457076,128.75 289.695652,128.75 L289.695652,128.75 Z" id="Combined-Shape-Copy" transform="translate(288.000000, 180.500000) scale(-1, 1) translate(-288.000000, -180.500000) "></path>
        </g>
    </g>
</svg>