<?xml version="1.0" encoding="UTF-8"?>
<svg width="20px" height="20px" viewBox="0 0 20 20" version="1.1" xmlns="http://www.w3.org/2000/svg" xmlns:xlink="http://www.w3.org/1999/xlink">
    <title>Path Copy</title>
    <g id="Page-1" stroke="none" stroke-width="1" fill="none" fill-rule="evenodd">
        <g id="Artboard-Copy" transform="translate(-54.000000, -121.000000)" fill="#FFFFFF" fill-rule="nonzero">
            <g id="Group-6-Copy" transform="translate(30.000000, 33.000000)">
                <path d="M34.8851095,88.365988 C34.3962338,87.878004 33.6037662,87.878004 33.1148905,88.365988 L24.3514298,97.1161047 C23.8769858,97.6065849 23.883771,98.3862277 24.36668,98.8684013 C24.849589,99.350575 25.6304207,99.3573499 26.1216489,98.8836283 L26.4884623,98.5173734 L26.4884623,106.749983 C26.4884623,107.440348 27.0489673,108 27.7403852,108 L30.2442311,108 C30.9356491,108 31.4961541,107.440348 31.4961541,106.749983 L31.4961541,101.960117 C31.4961541,101.269752 32.0566591,100.7101 32.748077,100.7101 L35.251923,100.7101 C35.9433409,100.7101 36.5038459,101.269752 36.5038459,101.960117 L36.5038459,106.749983 C36.5038459,107.440348 37.0643509,108 37.7557689,108 L40.2596148,108 C40.9510327,108 41.5115377,107.440348 41.5115377,106.749983 L41.5115377,98.5173734 L41.8783511,98.8836283 C42.3695793,99.3573499 43.150411,99.350575 43.63332,98.8684013 C44.116229,98.3862277 44.1230142,97.6065849 43.6485702,97.1161047 L34.8851095,88.365988 Z" id="Path-Copy"></path>
            </g>
        </g>
    </g>
</svg>