<?xml version="1.0" encoding="UTF-8"?>
<svg width="30px" height="27px" viewBox="0 0 30 27" version="1.1" xmlns="http://www.w3.org/2000/svg" xmlns:xlink="http://www.w3.org/1999/xlink">
    <title>Group 2</title>
    <g id="Page-1" stroke="none" stroke-width="1" fill="none" fill-rule="evenodd">
        <g id="Artboard-Copy-10" transform="translate(-35.000000, -33.000000)" fill="#D8D8D8">
            <g id="Group-2" transform="translate(35.000000, 33.000000)">
                <path d="M1.39360299,12.326087 L1.52447799,12.2158433 C2.2541136,11.6012287 3.32029835,11.6012287 4.04993395,12.2158433 L17.4200373,23.4782609 C18.0683716,24.0243906 18.1512247,24.992695 17.605095,25.6410293 C17.5487901,25.7078712 17.4868793,25.7697821 17.4200373,25.826087 L17.2891623,25.9363306 C16.5595267,26.5509452 15.493342,26.5509452 14.7637064,25.9363306 L1.39360299,14.673913 C0.745268715,14.1277833 0.662415585,13.1594789 1.20854534,12.5111446 C1.26485019,12.4443027 1.32676106,12.3823918 1.39360299,12.326087 Z" id="Rectangle"></path>
                <path d="M1.52447799,14.7841567 L1.39360299,14.673913 C0.745268715,14.1277833 0.662415585,13.1594789 1.20854534,12.5111446 C1.26485019,12.4443027 1.32676106,12.3823918 1.39360299,12.326087 L14.7637064,1.06366939 C15.493342,0.449054784 16.5595267,0.449054784 17.2891623,1.06366939 L17.4200373,1.17391304 C18.0683716,1.7200428 18.1512247,2.68834721 17.605095,3.33668148 C17.5487901,3.40352341 17.4868793,3.46543428 17.4200373,3.52173913 L4.04993395,14.7841567 C3.32029835,15.3987713 2.2541136,15.3987713 1.52447799,14.7841567 Z" id="Rectangle-Copy-3"></path>
                <rect id="Rectangle" x="3.21589476" y="11.4381868" width="26.7841052" height="4" rx="2"></rect>
            </g>
        </g>
    </g>
</svg>