<?xml version="1.0" encoding="UTF-8"?><svg version="1.1" width="8px" height="12px" viewBox="0 0 8.0 12.0" xmlns="http://www.w3.org/2000/svg" xmlns:xlink="http://www.w3.org/1999/xlink"><defs><clipPath id="i0"><path d="M1403,0 L1403,909 L0,909 L0,0 L1403,0 Z"></path></clipPath></defs><g transform="translate(-1100.0 -679.0)"><g clip-path="url(#i0)"><g transform="translate(1100.0 680.0)"><path d="M5.32848485,3.46171323 L5.16072727,8.07697444 M2.83927273,8.07697444 L2.67151515,3.46171323 M7.50448485,1.81560339 C7.67030303,1.84226935 7.83515152,1.87047372 8,1.90072932 M7.50448485,1.8161162 L6.98666667,8.93490022 C6.94283373,9.53607036 6.46874851,10.000177 5.89866667,10 L2.10133333,10 C1.53125149,10.000177 1.05716627,9.53607036 1.01333333,8.93490022 L0.495515152,1.81560339 M7.50448485,1.81560339 C6.94490511,1.72612733 6.38243183,1.65822095 5.81818182,1.61201909 M0,1.90021652 C0.164848485,1.86996091 0.32969697,1.84175654 0.495515152,1.81560339 M0.495515152,1.81560339 C1.055095,1.72612822 1.61756825,1.65822185 2.18181818,1.61201909 M5.81818182,1.61201909 L5.81818182,1.14228806 C5.81818182,0.537176036 5.3769697,0.0325741434 4.80484848,0.0136002917 C4.26841979,-0.00453343058 3.73158021,-0.00453343058 3.19515152,0.0136002917 C2.6230303,0.0325741434 2.18181818,0.537688843 2.18181818,1.14228806 L2.18181818,1.61201909 M5.81818182,1.61201909 C4.60786517,1.51308715 3.39213483,1.51308715 2.18181818,1.61201909" stroke="#FFFFFF" stroke-width="0.72" fill="none" stroke-linecap="round" stroke-linejoin="round"></path></g></g></g></svg>